<?xml version="1.0" encoding="UTF-8"?>
<!DOCTYPE svg PUBLIC "-//W3C//DTD SVG 1.1//EN" "http://www.w3.org/Graphics/SVG/1.1/DTD/svg11.dtd">
<!-- Creator: CorelDRAW -->
<svg width="46.8263mm" height="46.8266mm" version="1.1" style="shape-rendering:geometricPrecision; text-rendering:geometricPrecision; image-rendering:optimizeQuality; fill-rule:evenodd; clip-rule:evenodd"
viewBox="0 0 4117.92 4117.95"
>
 <defs>
  <style type="text/css">
   <![CDATA[
    .fil0 {fill:#2B2A29}
   ]]>
  </style>
 </defs>
 <g id="Слой_x0020_1">
  <metadata id="CorelCorpID_0Corel-Layer"/>
  <path class="fil0" d="M1431.89 959.41c15.3,9.88 31.85,19.09 48.93,28.08 -62.62,118.4 -113.44,243.16 -151.27,371.59 -103.78,-10.06 -204.03,-22.23 -299.67,-36.62 106.43,-148.24 243.75,-272.33 402.05,-363.08l-0.04 0.03zm547.92 146.84l0 285.94c-168.14,-1.58 -332.21,-8.13 -489.54,-19.58 35.11,-112.31 81.62,-221.52 137.89,-324.97 116.73,32.34 201.69,51.67 351.65,58.6zm79.11 -314.33c152.34,0.16 303.34,28.26 445.57,82.35 -137.35,50.25 -282.69,76.14 -428.93,76.14 -5.48,0 -11.26,-0.15 -16.58,-0.15 -5.4,0 -11.17,0.15 -16.65,0.15 -146.24,0 -291.58,-25.85 -428.84,-76.09 142.16,-54.14 293.17,-82.24 445.39,-82.39l0.04 -0.01zm79.2 600.31l0 -285.94c107.68,-4.19 214.95,-20.63 319.02,-48.43 54.11,101.04 99.15,207.86 133.28,317.35 -145.99,9.82 -297.35,15.56 -452.3,17.02zm547.84 -432.82c158.33,90.75 295.65,214.85 401.97,363.21 -106.9,16.08 -219.79,29.26 -336.73,39.91 -35.91,-123.68 -84.78,-244.66 -143.81,-359.2 27.09,-12.85 53.55,-27.6 78.6,-43.92l-0.03 0zm162.9 979.93c-4.65,-133.23 -27.57,-272.57 -55.2,-420.91 138.88,-14.55 264.44,-29.84 386.66,-49.93 63.92,120.7 111.07,254.86 130.78,402.05 -158.9,30.24 -286.84,47.64 -462.25,68.79zm-239.66 1175.09c85.85,-161.78 134.69,-321.92 157.64,-406.44 145.87,-13.69 276.77,-31.18 409.34,-50.52 -103,193.4 -273.71,377.04 -488.24,500.7 -26.5,-16.61 -47.02,-27.57 -78.73,-43.73zm-471.08 -1135.54l0 -428.29c169.52,-1.57 335.1,-8.12 494.19,-19.55 31.86,138.7 51.41,281.17 57.09,423.4 -176.36,14.29 -361.51,22.61 -551.28,24.44zm552.71 134.16c-3.16,149.68 -20.88,299.63 -52.58,446.2 -161.57,12.07 -329.55,19.09 -500.2,20.77l0.08 -442.75c189.88,-1.79 375.45,-10.01 552.71,-24.22zm-552.78 898.63l0.07 -273.3c155.67,-1.51 309.48,-7.2 458.44,-17.25 -35.09,117.37 -82.07,231.11 -139.61,338.97 -95.78,-28.11 -212.84,-44.92 -318.91,-48.43zm-79.13 314.35c-152.11,-0.14 -303.26,-28.24 -445.49,-82.33 137.35,-50.31 282.67,-76.17 428.93,-76.17 5.48,0 11.26,0.15 16.59,0.15 5.36,0 11.13,-0.15 16.61,-0.15 146.24,0 291.58,25.85 428.87,76.08 -142.16,54.18 -293.17,82.28 -445.39,82.44l-0.11 -0.02zm-79.19 -587.65l0 273.27c-118.98,4.46 -237.36,24.42 -351.42,58.67 -60.49,-111.61 -109.67,-230.43 -145.86,-352.19 161.05,11.8 327.96,18.62 497.28,20.25zm0 -601.11l0 442.73c-184.24,-1.8 -365.56,-9.76 -538.82,-23.65 -31.33,-146.6 -49.05,-296.61 -51.9,-446.32 188.5,16.08 387.2,25.32 590.72,27.24zm79.19 1347.14c787.14,0 1425.46,-638.33 1425.46,-1425.44 0,-787.11 -638.32,-1425.44 -1425.43,-1425.44 -787.11,0 -1425.44,638.33 -1425.44,1425.44 0.69,786.75 638.72,1424.77 1425.5,1425.46l-0.09 -0.02zm-1174.22 -2936.46l187.74 188.55c14.84,14.86 35.02,23.24 56.03,23.24 15.83,0 31.31,-4.77 44.39,-13.66 176.26,-119.2 375.21,-201.66 584.3,-241.44 37.29,-7.16 64.22,-39.81 64.22,-77.73l-0.04 -268.53 475.14 0 0 268.54c0.04,37.94 26.94,70.56 64.21,77.75 209.12,39.75 408.07,122.21 584.27,241.39 13.17,8.92 28.64,13.68 44.48,13.68 20.98,0 41.16,-8.38 55.97,-23.26l189.47 -189.43 335.94 335.98 -189.41 189.44c-14.79,14.83 -23.15,35 -23.15,55.97 0,15.81 4.77,31.28 13.59,44.36 119.16,176 201.62,375.36 241.42,584.31 7.06,37.32 39.69,64.28 77.61,64.28 0.04,0 0.04,0 0.06,0l268.54 -0.01 0 475.14 -268.58 0c-0.03,-0.01 -0.03,-0.01 -0.05,-0.01 -37.92,0 -70.55,26.94 -77.67,64.2 -39.75,209.03 -122.21,408.43 -241.42,584.45 -8.73,13.02 -13.5,28.49 -13.5,44.3 0,20.98 8.35,41.13 23.2,55.97l189.4 189.43 -336 335.98 -189.47 -189.43c-14.84,-14.84 -35,-23.15 -55.98,-23.15 -15.81,0 -31.28,4.73 -44.39,13.6 -176.26,119.18 -375.21,201.64 -584.33,241.41 -37.23,7.15 -64.17,39.78 -64.17,77.73l-0.04 268.53 -475.14 0 0 -268.54c0.04,-37.95 -26.87,-70.57 -64.13,-77.76 -209.15,-39.74 -408.1,-122.2 -584.3,-241.38 -13.17,-8.9 -28.64,-13.62 -44.45,-13.62 -21.01,0 -41.16,8.32 -56.04,23.16l-189.47 189.45 -335.94 -335.98 189.4 -189.44c14.86,-14.84 23.22,-34.99 23.22,-55.97 0,-15.8 -4.77,-31.27 -13.62,-44.36 -119.12,-176 -201.61,-375.38 -241.39,-584.33 -7.1,-37.32 -39.7,-64.26 -77.61,-64.26 -0.03,0 -0.06,0 -0.1,0l-268.59 0.01 0 -475.14 268.59 0c0.04,0.01 0.07,0.01 0.1,0.01 37.91,0 70.51,-26.96 77.67,-64.2 39.71,-209.07 122.2,-408.43 241.41,-584.46 8.77,-13.02 13.53,-28.48 13.53,-44.3 0,-20.97 -8.35,-41.15 -23.2,-55.97l-189.39 -189.43 337.65 -335.11zm-305.58 591.19c-25.97,41.69 -50,84.33 -72.11,127.92l-69.93 158.38c-30.18,77.19 -55.38,156.82 -74.24,237.52 -75.09,0.02 -362.84,-48.31 -362.84,79.23 0,0 0,0.04 0,0.04l0 633.52c0,-0.02 0,0.01 0,0.01 0,43.71 35.43,79.17 79.16,79.17 0,0 0,0 0,0l283.64 0c42.54,185.24 115.81,362.64 216.35,523.84l-200.06 200.1c-14.87,14.86 -23.22,35 -23.22,56.02 0,21.01 8.35,41.15 23.19,55.99l447.92 447.97c14.86,14.85 35.01,23.2 56.02,23.2 20.98,0 41.12,-8.35 55.97,-23.19l200.14 -200.06c41.67,25.95 84.3,49.99 127.89,72.08l158.38 69.96c76.94,30.3 157.1,55.32 237.69,74.21l-0.11 283.7c0.03,0 0.03,0.04 0.03,0.04 0,43.7 35.44,79.16 79.16,79.16 0,0 0.03,0 0.03,0l633.5 -0.01c0.02,0.01 0.04,0.01 0.04,0.01 43.7,0 79.17,-35.47 79.17,-79.16 0,0 0,-0.04 0,-0.04l-0.02 -283.58c185.17,-42.65 362.56,-115.81 523.97,-216.28l200.14 200.06c14.76,14.75 34.9,23.09 55.91,23.09 21.02,0 41.16,-8.35 56,-23.19l447.92 -447.97c14.84,-14.85 23.18,-34.99 23.18,-56 0,-21.02 -8.35,-41.16 -23.2,-56l-200.06 -200.11c25.95,-41.67 49.97,-84.31 72.08,-127.89l69.94 -158.39c30.22,-77.18 55.42,-156.82 74.27,-237.54l283.66 -0.03c0.02,0 0.05,0 0.05,0 43.7,0 79.16,-35.47 79.16,-79.17 0,0 0,-0.03 0,-0.03l-0.04 -633.51c0.04,0.01 0.04,-0.03 0.04,-0.03 0,-43.72 -35.47,-79.16 -79.16,-79.16 0,0 -0.04,0 -0.04,0l-283.68 -0.01c-42.53,-185.26 -115.77,-362.63 -216.33,-523.83l200.06 -200.1c14.9,-14.86 23.24,-35.01 23.24,-56.02 0,-21.01 -8.35,-41.16 -23.2,-56l-447.92 -447.96c-14.84,-14.85 -34.97,-23.21 -55.99,-23.21 -21.01,0 -41.16,8.35 -56,23.2l-200.14 200.06c-160.92,-105.42 -337.88,-171.91 -523.96,-216.25l0.07 -283.7c0.02,0.02 0.02,-0.01 0.02,-0.01 0,-43.73 -35.48,-79.17 -79.17,-79.17 0,0 -0.03,0 -0.03,0l-633.54 -0.02c0.03,0.02 0,0.02 0,0.02 -43.72,0 -79.16,35.44 -79.16,79.17 0,0 0,0.03 0,0.03l0 283.59c-185.15,42.65 -362.55,115.81 -523.99,216.28l-200.15 -200.06c-14.72,-14.77 -34.86,-23.13 -55.84,-23.13 -21.01,0 -41.16,8.35 -56,23.2l-447.92 447.96c-14.86,14.85 -23.21,35 -23.21,56.01 0,21.01 8.35,41.16 23.19,56l200.06 200.08zm1401.65 838.88l0 -428.29c-169.52,-1.57 -372.96,-9.92 -532.05,-21.35 -31.85,138.7 -51.4,281.17 -57.08,423.4 176.36,14.29 399.36,24.41 589.13,26.24zm-498.67 1151.98c-85.84,-161.78 -143.18,-342.79 -166.14,-427.31 -145.87,-13.69 -238.76,-26.27 -371.33,-45.61 103,193.4 274.44,377.48 488.99,501.15 26.5,-16.62 16.76,-12.08 48.47,-28.24zm1769.39 -647.19c-137.68,25.57 -288.47,46.39 -448.19,62.21 28.5,-146.95 44.45,-297.11 46.31,-446.64 169.94,-17.63 329.53,-40.96 474.83,-69.62 3.95,158.13 -19.24,304.83 -72.95,454.05zm-2384.74 -0.98c137.67,25.57 250.62,42.78 410.33,58.6 -28.49,-146.94 -44.45,-297.11 -46.3,-446.64 -169.95,-17.63 -291.69,-37.36 -436.98,-66.02 -3.95,158.13 19.24,304.84 72.95,454.05zm367.86 -545.91c4.65,-133.23 27.56,-272.58 55.19,-420.91 -138.88,-14.55 -228.39,-26.23 -350.61,-46.33 -63.93,120.7 -111.07,254.86 -130.79,402.05 158.91,30.25 250.81,44.03 426.21,65.19z"/>
 </g>
</svg>
