<?xml version="1.0" encoding="UTF-8"?>
<!DOCTYPE svg PUBLIC "-//W3C//DTD SVG 1.1//EN" "http://www.w3.org/Graphics/SVG/1.1/DTD/svg11.dtd">
<!-- Creator: CorelDRAW -->
<svg width="48.3523mm" height="5.7274mm" version="1.1" style="shape-rendering:geometricPrecision; text-rendering:geometricPrecision; image-rendering:optimizeQuality; fill-rule:evenodd; clip-rule:evenodd"
viewBox="0 0 4331.63 513.09">
 <defs>
  <style type="text/css">
   <![CDATA[
    .fil0 {fill:#2B2A29;fill-rule:nonzero}
   ]]>
  </style>
 </defs>
 <g id="Слой_x0020_1">
  <metadata id="CorelCorpID_0Corel-Layer"/>
  <path class="fil0" d="M1761.94 486.11l0 -65.4c0,-8.09 -4.04,-13.48 -12.81,-13.48 -0.67,0 -1.34,0 -2.02,0 -25.62,2.02 -62.7,5.39 -99.78,5.39 -46.52,0 -83.61,-24.28 -83.61,-113.94l0 -84.95c0,-89.67 37.09,-113.95 83.61,-113.95 37.08,0 74.16,3.38 99.78,5.39 0.68,0 1.35,0 2.02,0 8.77,0 12.81,-5.39 12.81,-13.48l0 -65.4c0,-9.44 -5.39,-12.14 -14.84,-14.84 -14.15,-4.72 -53.26,-11.46 -100.46,-11.46 -102.48,0 -199.57,53.26 -199.57,213.73l0 84.95c0,160.46 97.09,214.4 199.57,214.4 47.2,0 86.31,-6.75 100.46,-11.47 9.44,-2.7 14.84,-6.06 14.84,-15.51zm216.43 -480.05c-117.31,0 -141.59,58.66 -141.59,134.84l0 352.62c0,7.42 6.07,13.49 13.49,13.49l88.32 0c7.42,0 13.48,-6.07 13.48,-13.49l0 -352.62c0,-20.22 0,-34.38 29.67,-34.38l107.2 0c29.67,0 29.67,14.16 29.67,34.38l0 352.62c0,7.42 6.06,13.49 13.48,13.49l88.32 0c7.42,0 13.48,-6.07 13.48,-13.49l0 -352.62c0,-76.18 -24.27,-134.84 -141.59,-134.84l-113.94 0zm656.03 484.1l0 -62.7c0,-7.42 -6.06,-13.49 -13.48,-13.49l-136.88 0c-31.69,0 -43.14,-10.79 -43.14,-45.84l0 -71.47 174.63 0c7.42,0 13.48,-6.07 13.48,-13.48l0 -64.05c0,-7.42 -6.06,-13.48 -13.48,-13.48l-174.63 0 0 -61.36c0,-35.06 11.46,-45.85 43.14,-45.85l136.88 0c7.42,0 13.48,-6.06 13.48,-13.48l0 -62.71c0,-8.76 -4.05,-12.13 -13.48,-13.48 -23.6,-3.37 -57.32,-8.76 -130.13,-8.76 -86.98,0 -164.51,21.57 -164.51,144.29l0 223.85c0,122.7 76.86,144.96 163.84,144.96 72.81,0 107.21,-5.39 130.8,-8.77 9.43,-1.34 13.48,-5.39 13.48,-14.15zm477.35 -476.68c0,-4.05 -3.37,-7.42 -10.79,-7.42l-103.16 0c-7.42,0 -11.46,2.7 -14.84,8.09l-148.33 219.12 0 -214.4c0,-7.42 -6.07,-12.81 -13.49,-12.81l-88.32 0c-7.42,0 -13.48,5.39 -13.48,12.81l0 474.66c0,7.42 6.06,13.49 13.48,13.49l88.32 0c7.42,0 13.49,-6.07 13.49,-13.49l0 -218.45 136.87 222.5c3.37,5.39 6.74,9.44 14.84,9.44l115.97 0c6.06,0 9.43,-2.71 9.43,-6.75 0,-2.02 -0.67,-4.72 -2.7,-7.42l-161.14 -242.05 160.46 -227.89c2.02,-3.38 3.37,-6.75 3.37,-9.44zm396.45 74.84l0 -69.45c0,-7.42 -6.74,-12.81 -14.15,-12.81l-334.42 0c-7.42,0 -13.48,5.39 -13.48,12.81l0 69.45c0,7.42 6.06,12.81 13.48,12.81l109.89 0 0 392.4c0,7.42 6.07,13.49 13.49,13.49l88.32 0c7.42,0 13.48,-6.07 13.48,-13.49l0 -392.4 109.23 0c7.42,0 14.15,-5.39 14.15,-12.81zm433.54 80.23l0 -6.06c0,-126.75 -100.46,-162.49 -202.27,-162.49 -48.55,0 -102.48,3.37 -136.87,8.76 -20.9,3.37 -30.34,9.44 -30.34,32.37l0 453.08c0,7.41 6.06,12.81 13.48,12.81l86.98 0c7.42,0 13.48,-6.07 13.48,-13.49l0 -163.83c16.86,0.67 38.43,2.02 54.61,2.02 100.47,0 200.93,-37.08 200.93,-163.16zm-114.62 0c0,45.85 -26.29,68.1 -86.31,68.1 -7.41,0 -47.19,-0.68 -54.61,-1.35l0 -137.54c8.09,-0.68 45.18,-2.02 54.61,-2.02 56.64,0 86.31,18.88 86.31,66.75l0 6.06zm-3434.58 -153.7c0,-4.04 -3.37,-7.42 -10.79,-7.42l-103.19 0c-7.42,0 -11.47,2.7 -14.84,8.09l-148.38 219.2 0 -214.47c0,-7.43 -6.07,-12.82 -13.49,-12.82l-88.35 0c-7.43,0 -13.49,5.39 -13.49,12.82l0 474.82c0,7.42 6.06,13.49 13.49,13.49l88.35 0c7.42,0 13.49,-6.07 13.49,-13.49l0 -218.52 136.91 222.57c3.38,5.39 6.75,9.44 14.84,9.44l116 0c6.07,0 9.44,-2.7 9.44,-6.75 0,-2.02 -0.67,-4.72 -2.7,-7.42l-161.2 -242.13 160.53 -227.98c2.02,-3.37 3.37,-6.75 3.37,-9.44zm108.64 442.69c0,30.35 10.11,39.11 37.09,43.83 26.31,4.72 78.92,8.1 123.43,8.1 116.68,0 212.46,-31.7 212.46,-156.48l0 -4.72c0,-124.77 -95.78,-153.78 -212.46,-153.78 -14.84,0 -30.35,0.68 -45.87,1.35l0 -98.47 180.76 0c7.42,0 14.16,-5.4 14.16,-12.82l0 -69.46c0,-7.43 -6.75,-12.82 -14.16,-12.82l-281.93 0c-7.42,0 -13.48,6.07 -13.48,13.49l0 441.78zm154.45 -42.5c-29.01,0 -29.01,-0.67 -39.8,-0.67l0 -124.77c10.12,0 11.47,-0.67 39.8,-0.67 87,0 106.56,15.51 106.56,59.35l0 4.72c0,43.84 -19.56,62.05 -106.56,62.05zm570.74 -307.96l-85.11 147.66 85.11 151.25 -71.71 0 -103.88 -151.25 103.88 -147.66 71.71 0zm128.01 0l-84.44 147.66 84.44 151.25 -71.71 0 -103.88 -151.25 103.88 -147.66 71.71 0zm2801.66 0l85.11 147.66 -85.11 151.25 71.71 0 103.87 -151.25 -103.87 -147.66 -71.71 0zm-128.01 0l84.44 147.66 -84.44 151.25 71.71 0 103.88 -151.25 -103.88 -147.66 -71.71 0z"/>
 </g>
</svg>
