<?xml version="1.0" encoding="UTF-8"?>
<!DOCTYPE svg PUBLIC "-//W3C//DTD SVG 1.1//EN" "http://www.w3.org/Graphics/SVG/1.1/DTD/svg11.dtd">
<!-- Creator: CorelDRAW -->
<svg width="115.893mm" height="14.0969mm" version="1.1" style="shape-rendering:geometricPrecision; text-rendering:geometricPrecision; image-rendering:optimizeQuality; fill-rule:evenodd; clip-rule:evenodd"
viewBox="0 0 7424.68 903.12">
 <defs>
  <style type="text/css">
   <![CDATA[
    .fil0 {fill:black;fill-rule:nonzero}
   ]]>
  </style>
 </defs>
 <g id="Слой_x0020_1">
  <metadata id="CorelCorpID_0Corel-Layer"/>
  <path class="fil0" d="M494.47 698.31l-123.86 0 0 -74.28c-20.65,28.93 -45.19,50.55 -73.31,65.18 -28.12,14.47 -56.57,21.78 -85.18,21.78 -58.35,0 -108.25,-23.41 -149.87,-70.38 -41.45,-46.98 -62.25,-112.32 -62.25,-196.36 0,-85.83 20.15,-151.17 60.62,-195.87 40.48,-44.7 91.52,-66.97 153.29,-66.97 56.56,0 105.66,23.57 146.94,70.55l0 -251.95 133.61 0 0 698.31zm-356.95 -262.84c0,54.13 7.48,93.3 22.27,117.52 21.62,35.11 51.69,52.67 90.38,52.67 30.72,0 56.89,-13.17 78.34,-39.5 21.62,-26.33 32.35,-65.51 32.35,-117.85 0,-58.35 -10.4,-100.29 -31.37,-125.97 -20.97,-25.68 -47.63,-38.52 -80.3,-38.52 -31.69,0 -58.19,12.68 -79.65,38.04 -21.3,25.36 -32.02,63.23 -32.02,113.62zm616.22 262.84l-133.62 0 0 -506.17 123.86 0 0 71.84c21.3,-33.97 40.48,-56.24 57.54,-66.81 17.07,-10.56 36.41,-15.77 58.03,-15.77 30.56,0 59.98,8.45 88.26,25.2l-41.45 116.71c-22.6,-14.63 -43.56,-21.94 -62.91,-21.94 -18.85,0 -34.79,5.2 -47.79,15.44 -13.01,10.4 -23.25,28.93 -30.73,55.92 -7.48,26.98 -11.21,83.55 -11.21,169.54l0 156.04zm220.57 -259.26c0,-44.54 10.89,-87.62 32.84,-129.23 21.94,-41.78 52.99,-73.47 93.14,-95.41 40.15,-21.95 84.85,-33 134.43,-33 76.56,0 139.14,24.87 188.07,74.61 48.93,49.9 73.31,112.65 73.31,188.72 0,76.72 -24.71,140.28 -73.96,190.67 -49.41,50.39 -111.5,75.58 -186.44,75.58 -46.33,0 -90.54,-10.56 -132.64,-31.53 -41.94,-20.97 -73.96,-51.69 -95.9,-92.33 -21.95,-40.47 -32.84,-89.89 -32.84,-148.08zm137.52 7.16c0,50.23 11.87,88.75 35.6,115.41 23.9,26.82 53.15,40.15 88.1,40.15 34.78,0 64.04,-13.33 87.61,-40.15 23.57,-26.66 35.44,-65.51 35.44,-116.39 0,-49.57 -11.87,-87.78 -35.44,-114.43 -23.57,-26.82 -52.83,-40.15 -87.61,-40.15 -34.95,0 -64.21,13.33 -88.1,40.15 -23.73,26.66 -35.6,65.18 -35.6,115.41zm949.77 252.11l-133.61 0 0 -257.96c0,-54.62 -2.92,-89.89 -8.61,-105.82 -5.86,-16.09 -15.12,-28.44 -28.12,-37.39 -13.01,-8.94 -28.6,-13.33 -46.81,-13.33 -23.41,0 -44.38,6.34 -62.91,19.01 -18.69,12.68 -31.37,29.59 -38.2,50.39 -6.99,20.97 -10.4,59.65 -10.4,116.22l0 228.87 -133.61 0 0 -506.17 123.86 0 0 74.28c44.38,-56.73 100.13,-85.01 167.59,-85.01 29.59,0 56.73,5.36 81.27,15.93 24.71,10.73 43.24,24.22 55.76,40.64 12.68,16.58 21.46,35.27 26.33,56.24 5.04,20.97 7.48,50.88 7.48,89.89l0 314.21zm234.89 -350.13l-120.94 -21.46c13.65,-49.41 37.22,-85.99 70.54,-109.72 33.33,-23.74 82.9,-35.6 148.57,-35.6 59.65,0 104.19,6.99 133.45,21.13 29.1,14.15 49.74,32.03 61.6,53.81 11.87,21.78 17.88,61.6 17.88,119.79l-1.95 156.04c0,44.38 2.11,77.21 6.34,98.35 4.23,21.13 12.19,43.72 23.9,67.78l-132.64 0c-3.41,-8.78 -7.8,-21.78 -12.84,-39.01 -2.11,-7.97 -3.74,-13.17 -4.72,-15.61 -22.76,22.43 -47.14,39.18 -73.14,50.39 -26.01,11.22 -53.64,16.91 -83.07,16.91 -51.85,0 -92.81,-14.14 -122.72,-42.42 -29.91,-28.12 -44.86,-63.88 -44.86,-107.12 0,-28.44 6.83,-53.96 20.48,-76.4 13.66,-22.27 32.67,-39.5 57.38,-51.36 24.54,-11.86 59.98,-22.27 106.3,-31.21 62.42,-11.7 105.82,-22.76 129.88,-32.83l0 -13.49c0,-26 -6.34,-44.54 -19.02,-55.75 -12.84,-11.06 -36.89,-16.58 -72.17,-16.58 -23.9,0 -42.42,4.71 -55.76,14.3 -13.49,9.43 -24.22,26.17 -32.51,50.07zm179.45 108.26c-17.07,5.69 -44.22,12.52 -81.44,20.48 -37.06,7.96 -61.44,15.77 -72.82,23.24 -17.39,12.52 -26.17,28.12 -26.17,47.14 0,18.85 6.99,34.95 20.97,48.6 13.98,13.66 31.69,20.48 53.31,20.48 24.06,0 47.14,-7.96 69.08,-23.73 16.09,-12.19 26.82,-26.82 31.86,-44.38 3.41,-11.38 5.2,-33.16 5.2,-65.18l0 -26.66zm250.81 274.06l153.12 18.53c2.6,18.04 8.45,30.4 17.55,37.22 12.84,9.59 32.83,14.47 60.14,14.47 34.95,0 61.12,-5.2 78.67,-15.77 11.7,-6.99 20.64,-18.2 26.66,-33.81 4.06,-11.05 6.18,-31.7 6.18,-61.44l0.65 -73.96c-40.31,55.1 -91.02,82.57 -152.14,82.57 -67.95,0 -121.91,-28.77 -161.57,-86.15 -31.21,-45.35 -46.81,-101.92 -46.81,-169.37 0,-84.85 20.48,-149.55 61.28,-194.24 40.8,-44.7 91.68,-67.13 152.47,-67.13 62.58,0 114.27,27.47 154.91,82.41l0 -71.68 124.84 0 0 453.83c0,59.66 -4.88,104.36 -14.79,133.78 -9.75,29.58 -23.57,52.66 -41.45,69.57 -17.71,16.74 -41.45,30.07 -71.2,39.5 -29.75,9.59 -67.29,14.31 -112.65,14.31 -85.83,0 -146.62,-14.79 -182.54,-44.21 -35.92,-29.59 -53.8,-66.81 -53.8,-112.16 0,-4.39 0.16,-9.92 0.49,-16.25zm119.96 -295.51c0,53.64 10.4,92.81 31.05,117.68 20.8,24.87 46.49,37.39 76.88,37.39 32.51,0 60.14,-12.84 82.57,-38.36 22.6,-25.52 33.81,-63.23 33.81,-113.29 0,-52.34 -10.72,-91.19 -32.35,-116.55 -21.46,-25.36 -48.76,-38.04 -81.76,-38.04 -32.02,0 -58.36,12.51 -79.16,37.38 -20.65,24.87 -31.05,62.75 -31.05,113.79zm616.22 263.33l-133.62 0 0 -506.17 123.86 0 0 71.84c21.3,-33.97 40.48,-56.24 57.54,-66.81 17.07,-10.56 36.41,-15.77 58.03,-15.77 30.56,0 59.98,8.45 88.26,25.2l-41.45 116.71c-22.6,-14.63 -43.56,-21.94 -62.91,-21.94 -18.85,0 -34.79,5.2 -47.79,15.44 -13.01,10.4 -23.25,28.93 -30.73,55.92 -7.48,26.98 -11.21,83.55 -11.21,169.54l0 156.04zm220.57 -259.26c0,-44.54 10.89,-87.62 32.84,-129.23 21.94,-41.78 52.99,-73.47 93.14,-95.41 40.15,-21.95 84.85,-33 134.43,-33 76.56,0 139.14,24.87 188.07,74.61 48.93,49.9 73.31,112.65 73.31,188.72 0,76.72 -24.71,140.28 -73.96,190.67 -49.41,50.39 -111.5,75.58 -186.44,75.58 -46.33,0 -90.54,-10.56 -132.64,-31.53 -41.94,-20.97 -73.96,-51.69 -95.9,-92.33 -21.95,-40.47 -32.84,-89.89 -32.84,-148.08zm137.52 7.16c0,50.23 11.87,88.75 35.6,115.41 23.9,26.82 53.15,40.15 88.1,40.15 34.78,0 64.04,-13.33 87.61,-40.15 23.57,-26.66 35.44,-65.51 35.44,-116.39 0,-49.57 -11.87,-87.78 -35.44,-114.43 -23.57,-26.82 -52.83,-40.15 -87.61,-40.15 -34.95,0 -64.21,13.33 -88.1,40.15 -23.73,26.66 -35.6,65.18 -35.6,115.41zm441.64 109.72l134.59 -20.48c5.69,25.84 17.23,45.51 34.78,58.84 17.39,13.49 41.94,20.15 73.31,20.15 34.63,0 60.63,-6.34 78.18,-19.02 11.7,-8.94 17.56,-20.97 17.56,-35.92 0,-10.08 -3.25,-18.53 -9.59,-25.2 -6.67,-6.34 -21.62,-12.35 -44.7,-17.71 -108.09,-23.9 -176.52,-45.68 -205.46,-65.35 -40.15,-27.47 -60.14,-65.51 -60.14,-114.11 0,-44.05 17.39,-80.95 52.01,-110.86 34.62,-29.91 88.26,-44.86 160.92,-44.86 69.24,0 120.77,11.38 154.42,33.97 33.65,22.76 56.9,56.24 69.57,100.61l-125.82 23.41c-5.36,-19.83 -15.77,-35.11 -30.88,-45.68 -15.12,-10.56 -36.73,-15.77 -64.86,-15.77 -35.43,0 -60.79,4.88 -76.23,14.79 -10.24,6.99 -15.28,16.09 -15.28,27.14 0,9.59 4.39,17.72 13.33,24.38 12.19,8.94 53.97,21.46 125.49,37.71 71.52,16.26 121.42,36.09 149.7,59.66 28.12,23.73 42.1,57.06 42.1,99.64 0,46.33 -19.34,86.31 -58.19,119.63 -38.69,33.33 -96.07,50.07 -172.14,50.07 -68.92,0 -123.54,-13.98 -163.85,-41.78 -40.15,-27.79 -66.48,-65.51 -78.84,-113.29zm821.35 -363.78l0 106.3 -91.68 0 0 204.98c0,41.61 0.81,65.83 2.6,72.66 1.79,6.83 5.69,12.52 12.03,17.07 6.18,4.39 13.65,6.66 22.6,6.66 12.51,0 30.39,-4.22 53.96,-12.84l11.22 104.03c-31.05,13.33 -66.16,19.99 -105.5,19.99 -24.06,0 -45.67,-4.06 -65.02,-12.19 -19.34,-8.12 -33.48,-18.69 -42.42,-31.53 -9.1,-13.01 -15.28,-30.4 -18.85,-52.5 -2.76,-15.61 -4.23,-47.14 -4.23,-94.76l0 -221.56 -61.44 0 0 -106.3 61.44 0 0 -100.46 133.61 -79 0 179.46 91.68 0zm193.11 156.04l-120.94 -21.46c13.65,-49.41 37.22,-85.99 70.54,-109.72 33.33,-23.74 82.9,-35.6 148.57,-35.6 59.65,0 104.19,6.99 133.45,21.13 29.1,14.15 49.74,32.03 61.6,53.81 11.87,21.78 17.88,61.6 17.88,119.79l-1.95 156.04c0,44.38 2.11,77.21 6.34,98.35 4.23,21.13 12.19,43.72 23.9,67.78l-132.64 0c-3.41,-8.78 -7.8,-21.78 -12.84,-39.01 -2.11,-7.97 -3.74,-13.17 -4.72,-15.61 -22.76,22.43 -47.14,39.18 -73.14,50.39 -26.01,11.22 -53.64,16.91 -83.07,16.91 -51.85,0 -92.81,-14.14 -122.72,-42.42 -29.91,-28.12 -44.86,-63.88 -44.86,-107.12 0,-28.44 6.83,-53.96 20.48,-76.4 13.66,-22.27 32.67,-39.5 57.38,-51.36 24.54,-11.86 59.98,-22.27 106.3,-31.21 62.42,-11.7 105.82,-22.76 129.88,-32.83l0 -13.49c0,-26 -6.34,-44.54 -19.02,-55.75 -12.84,-11.06 -36.89,-16.58 -72.17,-16.58 -23.9,0 -42.42,4.71 -55.76,14.3 -13.49,9.43 -24.22,26.17 -32.51,50.07zm179.45 108.26c-17.07,5.69 -44.22,12.52 -81.44,20.48 -37.06,7.96 -61.44,15.77 -72.82,23.24 -17.39,12.52 -26.17,28.12 -26.17,47.14 0,18.85 6.99,34.95 20.97,48.6 13.98,13.66 31.69,20.48 53.31,20.48 24.06,0 47.14,-7.96 69.08,-23.73 16.09,-12.19 26.82,-26.82 31.86,-44.38 3.41,-11.38 5.2,-33.16 5.2,-65.18l0 -26.66zm723.82 241.87l-133.61 0 0 -257.96c0,-54.62 -2.92,-89.89 -8.61,-105.82 -5.86,-16.09 -15.12,-28.44 -28.12,-37.39 -13.01,-8.94 -28.6,-13.33 -46.81,-13.33 -23.41,0 -44.38,6.34 -62.91,19.01 -18.69,12.68 -31.37,29.59 -38.2,50.39 -6.99,20.97 -10.4,59.65 -10.4,116.22l0 228.87 -133.61 0 0 -506.17 123.86 0 0 74.28c44.38,-56.73 100.13,-85.01 167.59,-85.01 29.59,0 56.73,5.36 81.27,15.93 24.71,10.73 43.24,24.22 55.76,40.64 12.68,16.58 21.46,35.27 26.33,56.24 5.04,20.97 7.48,50.88 7.48,89.89l0 314.21zm134.43 0l0 -133.61 133.61 0 0 133.61 -133.61 0zm399.71 0l-133.62 0 0 -506.17 123.86 0 0 71.84c21.3,-33.97 40.48,-56.24 57.54,-66.81 17.07,-10.56 36.41,-15.77 58.03,-15.77 30.56,0 59.98,8.45 88.26,25.2l-41.45 116.71c-22.6,-14.63 -43.56,-21.94 -62.91,-21.94 -18.85,0 -34.79,5.2 -47.79,15.44 -13.01,10.4 -23.25,28.93 -30.73,55.92 -7.48,26.98 -11.21,83.55 -11.21,169.54l0 156.04zm586.3 0l0 -75.75c-18.53,26.98 -42.75,48.44 -72.82,64.53 -30.07,15.93 -61.76,23.9 -95.09,23.9 -34.13,0 -64.69,-7.48 -91.68,-22.43 -27.14,-14.96 -46.65,-36.09 -58.68,-63.07 -12.19,-27.14 -18.21,-64.53 -18.21,-112.32l0 -321.03 133.61 0 0 233.09c0,71.36 2.44,114.93 7.48,131.02 4.88,16.09 13.81,28.93 26.98,38.2 13.01,9.43 29.59,14.14 49.74,14.14 22.92,0 43.4,-6.34 61.6,-18.85 18.21,-12.51 30.56,-28.12 37.23,-46.81 6.66,-18.69 10.08,-64.21 10.08,-136.86l0 -213.91 133.61 0 0 506.17 -123.86 0z"/>
 </g>
</svg>
